PathFileType	4	(X/Y/Z)	/Users/mathieubourgeois/Desktop/Analyse/Traitement/Sujet_06/Data/Transformed_Sujet_06_velo_80.trc
DataRate	CameraRate	NumFrames	NumMarkers	Units	OrigDataRate	OrigDataStartFrame	OrigNumFrames
120.000000	120.000000	4	36	mm	120.000000	1655	1892
Frame#	Time	RFHD			RANE			STRN			LANI			LKNE			T10			RHUM			RWRB			C7			LFWT			LTOE			RTOE			LWRA			LBWT			RBWT			RFWT			LKNI			RKNI			RKNE			LANE			RANI			LHEE			RHEE			LHUM			LRAD			RRAD			RWRA			LWRB			LFHD			LBHD			RBHD			RSHO			LSHO			CLAV			LCAR			RCAR			
		X1	Y1	Z1	X2	Y2	Z2	X3	Y3	Z3	X4	Y4	Z4	X5	Y5	Z5	X6	Y6	Z6	X7	Y7	Z7	X8	Y8	Z8	X9	Y9	Z9	X10	Y10	Z10	X11	Y11	Z11	X12	Y12	Z12	X13	Y13	Z13	X14	Y14	Z14	X15	Y15	Z15	X16	Y16	Z16	X17	Y17	Z17	X18	Y18	Z18	X19	Y19	Z19	X20	Y20	Z20	X21	Y21	Z21	X22	Y22	Z22	X23	Y23	Z23	X24	Y24	Z24	X25	Y25	Z25	X26	Y26	Z26	X27	Y27	Z27	X28	Y28	Z28	X29	Y29	Z29	X30	Y30	Z30	X31	Y31	Z31	X32	Y32	Z32	X33	Y33	Z33	X34	Y34	Z34	X35	Y35	Z35	X36	Y36	Z36	

1656	13.79166666666667	262.7512817382812	1388.930908203125	115.077781677246	58.78289794921873	438.9109497070312	190.6714477539062	-30.00792503356934	1198.87646484375	55.5953063964843	-161.6253509521484	391.6334228515625	-58.17796325683598	33.60709381103518	721.6888427734375	-145.8466491699219	-202.32763671875	1347.837158203125	54.75165939331044	180.0133666992187	1122.893310546875	230.3606567382812	385.2575378417969	1015.962524414062	173.5658874511719	31.06779670715331	1463.535278320312	61.46878433227531	-184.4922485351562	1110.951416015625	-64.80464935302744	-98.97591400146483	230.2514495849609	-134.7813568115234	238.7236938476562	386.5613708496094	193.1698608398438	408.3894653320312	1030.366455078125	-123.9420547485352	-340.15380859375	1139.04833984375	-8.289091110229602	-335.9513244628906	1134.86083984375	100.9197158813475	-178.9829559326172	1106.2119140625	148.4620971679687	45.56118774414063	673.8571166992188	-50.18927383422855	146.4745788574219	791.1200561523438	85.2536926269531	113.9485473632812	835.6743774414062	176.3425903320312	-195.2209777832031	400.7403564453125	-134.5431518554688	86.7793731689453	440.6124877929688	113.0287246704101	-239.5963745117188	423.8419494628906	-90.60369873046881	5.236710071563703	419.3936462402344	144.7273254394531	182.3038635253907	1119.514892578125	-182.2119445800782	216.9774322509766	1165.677368164062	-211.1629791259766	222.2396697998047	1152.618041992188	275.3749389648437	411.8188171386718	1021.89892578125	233.0680694580078	431.0683898925781	1033.348876953125	-183.3275299072266	260.3624267578125	1387.758178710938	-28.55103302001958	178.4148712158203	1513.747680664062	-26.97674179077156	182.4012298583984	1533.35498046875	100.3744354248046	56.45983886718748	1414.779541015625	198.7285919189452	43.06459045410158	1411.594116210938	-94.80374908447274	52.28143310546874	1322.839599609375	52.46191024780266	484.8900451660156	1047.484985351562	-102.7874526977539	488.2718811035156	1046.94384765625	175.8432464599609	
1657	13.8	262.7130126953125	1389.219848632812	114.2599868774413	61.84244537353513	426.1227111816406	191.0146484375	-30.14819908142091	1198.90234375	55.37171936035148	-164.4586791992188	403.3341674804688	-57.77552795410161	39.55515670776369	728.9096069335938	-146.1498718261719	-202.4461059570312	1347.919921875	54.84699630737294	180.0462493896484	1122.98583984375	230.029312133789	385.3030090332031	1015.844848632812	173.6568908691406	30.95752716064452	1463.600219726562	60.90399551391593	-184.6705322265625	1111.22314453125	-64.47531890869151	-103.0304565429687	241.2478179931641	-134.5599365234375	242.199478149414	373.7920532226562	193.1127014160156	408.4321899414062	1030.355590820312	-123.7963562011719	-340.395263671875	1139.0966796875	-7.766487598419301	-335.8765869140625	1134.703125	101.4005966186522	-178.9827117919922	1106.093017578125	148.8644409179687	50.19978332519532	681.0482177734375	-50.22771453857425	142.0863342285156	781.2245483398438	86.1922912597656	109.6112976074218	825.1940307617188	177.1226196289062	-195.5813293457031	413.7296752929688	-134.3250427246094	89.97107696533202	428.5184326171875	113.254409790039	-239.4349975585938	437.7723999023438	-90.25131988525396	8.444640159606916	406.7294616699219	145.1841888427734	182.2603759765625	1119.253540039062	-182.0070495605469	216.8074493408203	1165.365356445312	-211.0825653076172	222.1900939941406	1152.694213867188	275.0656127929687	411.7917175292968	1021.788513183594	233.1740112304688	431.0840759277344	1033.303100585938	-183.2048950195312	260.1190490722656	1387.831909179688	-29.36075782775884	178.0829162597656	1513.7509765625	-27.84919738769538	182.2538604736328	1533.5654296875	99.44715881347649	56.63057327270506	1414.911987304688	198.2030944824218	42.8270606994629	1411.41015625	-95.34442901611337	52.18481445312499	1322.85400390625	52.09585952758782	484.9181213378906	1047.511962890625	-102.6215744018555	488.2746276855469	1046.88232421875	176.0203552246094	
1658	13.80833333333333	262.7766418457031	1389.515380859375	113.4280776977538	64.03781890869138	413.2094421386719	191.4757232666015	-30.23585510253907	1198.963745117188	55.13980865478508	-164.6407775878906	415.4465026855469	-57.84986877441411	45.64036941528322	736.5990600585938	-146.3378295898438	-202.4981231689453	1348.028930664062	54.93811798095692	180.1343231201172	1123.11474609375	229.6993713378906	385.41259765625	1015.677429199219	173.7742462158203	30.93383026123046	1463.698852539062	60.41022872924796	-184.7518157958984	1111.536010742188	-64.10720062255869	-105.0770874023437	252.6551361083984	-134.1394805908203	244.5630493164062	361.0498657226562	193.1614837646484	408.5517578125	1030.344970703125	-123.6132125854492	-340.568603515625	1139.177368164062	-7.236846446991079	-335.7234191894531	1134.652587890625	101.9793167114257	-178.8490447998047	1106.03857421875	149.2713470458984	55.86698532104493	688.89794921875	-50.32500457763675	136.0245666503906	769.459228515625	87.11265563964841	105.0928039550781	814.3946533203125	177.9863281249999	-195.0346527099609	426.7970581054688	-134.1113739013672	90.89757537841795	415.7705688476562	113.61083984375	-238.4678802490234	451.8115234375	-89.89244079589849	11.49007225036619	393.6251220703125	144.8830108642578	182.2818603515625	1119.045776367188	-181.8396148681641	216.713607788086	1165.085815429688	-211.0158386230469	222.2445831298828	1152.7822265625	274.7625732421874	411.7858581542968	1021.681762695312	233.3405456542969	431.1469116210938	1033.275756835938	-183.0197296142578	259.9281311035156	1387.880981445312	-30.21399879455572	177.8401947021484	1513.775756835938	-28.73441886901863	182.2255249023438	1533.79541015625	98.5108337402343	56.85190582275388	1415.0927734375	197.781768798828	42.65210723876955	1411.239013671875	-95.8500289916993	52.15113449096679	1322.916381835938	51.67506027221673	484.9762878417969	1047.549438476562	-102.4317626953125	488.3651123046875	1047.030151367188	176.0583038330078	
1659	13.81666666666667	262.8929443359375	1389.816040039062	112.5184249877929	65.20732116699216	400.2242126464844	192.0225830078125	-30.28505897521973	1199.084350585938	54.87487030029289	-163.9828338623047	428.1219787597656	-57.56230163574224	51.80662155151369	744.7860107421875	-146.4515380859376	-202.4989318847656	1348.179443359375	55.04946136474599	180.3211364746093	1123.26513671875	229.3365020751953	385.5630187988281	1015.515441894531	173.8979187011719	30.99501419067382	1463.884033203125	59.84844207763663	-184.8267974853516	1111.902709960938	-63.66063690185556	-108.1954040527344	264.1366882324219	-134.106689453125	246.0926971435547	347.9395446777344	193.0799560546875	408.6604919433594	1030.3232421875	-123.4241943359375	-340.6702270507812	1139.314453125	-6.633683204650991	-335.477783203125	1134.664672851562	102.5434112548827	-178.6493225097657	1105.996704101562	149.7281951904296	60.66120529174805	696.5512084960938	-49.93488311767582	131.0007781982422	758.2091064453125	87.94988250732419	100.0641250610351	803.3701171875	178.967300415039	-193.6726837158203	439.9671630859375	-133.8772735595704	90.47950744628905	404.0465087890625	114.6646270751953	-236.7079315185547	465.7395629882812	-89.58816528320318	12.74344348907469	380.70556640625	145.45947265625	182.3500366210938	1118.867431640625	-181.6830596923828	216.6956481933594	1164.831420898438	-210.9652252197266	222.3530883789062	1152.90283203125	274.4898681640624	411.8399658203124	1021.582824707031	233.5053863525391	431.1944580078125	1033.251831054688	-182.7825164794922	259.744140625	1387.951782226562	-31.11051368713384	177.6122589111328	1513.81103515625	-29.67961120605476	182.2919464111328	1534.03564453125	97.51976013183587	57.18169021606443	1415.341430664062	197.2831268310546	42.53595352172853	1411.152587890625	-96.3908004760743	52.10319519042968	1322.997924804688	51.23181915283196	485.0486450195312	1047.556274414062	-102.2049942016602	488.4497680664062	1046.93505859375	176.3013763427734	
